<svg width="19" height="20" viewBox="0 0 19 20" fill="none" xmlns="http://www.w3.org/2000/svg">
<path d="M1.11306 3.86111C1.11306 11.9459 7.66712 18.5 15.752 18.5C16.1167 18.5 16.4783 18.4867 16.8365 18.4604C17.2474 18.4303 17.4528 18.4153 17.6399 18.3076C17.7948 18.2185 17.9417 18.0604 18.0193 17.8993C18.1131 17.705 18.1131 17.4782 18.1131 17.0248V14.364C18.1131 13.9826 18.1131 13.792 18.0503 13.6286C17.9949 13.4842 17.9048 13.3556 17.7881 13.2542C17.656 13.1393 17.4767 13.0742 17.1184 12.9438L14.0897 11.8425C13.6728 11.6909 13.4642 11.6151 13.2665 11.6279C13.092 11.6393 12.9242 11.6989 12.7816 11.7999C12.6199 11.9145 12.5058 12.1047 12.2775 12.4852L11.502 13.7778C8.99927 12.6444 6.97041 10.6129 5.83528 8.11112L7.12788 7.33556C7.50832 7.10729 7.69854 6.99316 7.81314 6.83145C7.9142 6.68886 7.97379 6.52102 7.98512 6.34661C7.99797 6.14881 7.92213 5.94034 7.77055 5.52338L6.66922 2.4947C6.53889 2.13633 6.47374 1.95714 6.3589 1.82498C6.25746 1.70824 6.1289 1.6182 5.98452 1.56276C5.82108 1.5 5.63041 1.5 5.24908 1.5H2.58829C2.13483 1.5 1.9081 1.5 1.7137 1.59374C1.5527 1.67138 1.39463 1.81829 1.30544 1.9732C1.19775 2.16023 1.18271 2.3657 1.15262 2.77663C1.1264 3.1347 1.11306 3.49635 1.11306 3.86111Z" stroke="black" stroke-width="1.2" stroke-linecap="round" stroke-linejoin="round"/>
</svg>
