<svg width="150" height="192" viewBox="0 0 150 192" fill="none" xmlns="http://www.w3.org/2000/svg">
    <path fill-rule="evenodd" clip-rule="evenodd"
        d="M128.151 108.266C128.352 108.607 128.875 108.465 128.875 108.069C128.875 107.855 128.701 107.681 128.486 107.681C128.186 107.681 127.999 108.007 128.151 108.266ZM148.824 73.0956C148.824 79.2494 143.835 84.238 137.681 84.238H124.753C118.096 84.238 111.936 80.7157 108.559 74.9786L69.3523 8.36566C67.4807 5.18578 69.597 1.17627 73.2867 1.17627C83.8986 1.17627 93.7386 2.5751 102.807 5.37277C111.972 8.17043 119.979 12.5116 126.828 18.3964C141.492 31.1306 148.824 49.3637 148.824 73.0956ZM58.7412 84.238C70.0349 84.238 77.0524 71.965 71.3238 62.232L47.8415 22.335C42.9711 14.0601 32.3742 10.5571 25.034 16.7471C23.7097 17.8639 22.4292 19.0407 21.1923 20.2776C17.9215 23.5483 17.6665 28.635 20.0128 32.6213L46.1586 77.0436C48.7823 81.5012 53.5687 84.238 58.7412 84.238ZM3.29056 54.9525C3.30273 54.8935 3.38118 54.8805 3.41174 54.9324C3.43758 54.9763 3.40594 55.0317 3.35501 55.0317C3.31331 55.0317 3.28214 54.9934 3.29056 54.9525ZM23.7137 107.681C30.3708 107.681 36.5311 111.203 39.9078 116.94L78.428 182.386C80.6033 186.082 78.1541 190.742 73.8656 190.742C51.4842 190.742 33.9265 184.375 21.1923 171.641C7.87923 158.328 1.22272 139.516 1.22272 115.205C1.22272 111.049 4.59166 107.681 8.74747 107.681H23.7137ZM123.518 176.191C116.005 181.849 105.742 178.276 100.971 170.171L77.143 129.687C71.4144 119.954 78.4319 107.681 89.7256 107.681C94.8981 107.681 99.6845 110.417 102.308 114.875L128.591 159.53C131.295 164.124 130.854 170.027 126.828 173.522C125.753 174.449 124.649 175.339 123.518 176.191Z"
        fill="#E8E8E8" />
    <path
        d="M102.807 5.37277L102.512 6.32833L102.515 6.3292L102.807 5.37277ZM126.828 18.3964L127.484 17.6413L127.48 17.6379L126.828 18.3964ZM21.1923 171.641L21.8994 170.934L21.1923 171.641ZM39.9078 116.94L39.046 117.447L39.9078 116.94ZM78.428 182.386L79.2898 181.879L78.428 182.386ZM47.8415 22.335L48.7033 21.8278L47.8415 22.335ZM69.3523 8.36566L68.4905 8.8729L69.3523 8.36566ZM3.41174 54.9324L2.54993 55.4397L3.41174 54.9324ZM126.828 173.522L127.481 174.279L127.484 174.277L126.828 173.522ZM102.308 114.875L101.446 115.382L102.308 114.875ZM20.0128 32.6213L19.151 33.1285L20.0128 32.6213ZM123.518 176.191L124.119 176.99L123.518 176.191ZM128.151 108.266L129.013 107.759L128.151 108.266ZM124.753 85.238H137.681V83.238H124.753V85.238ZM68.4905 8.8729L107.697 75.4858L109.421 74.4713L70.2141 7.85842L68.4905 8.8729ZM103.102 4.41721C93.9274 1.58683 83.9868 0.17627 73.2867 0.17627V2.17627C83.8103 2.17627 93.5499 3.56337 102.512 6.32833L103.102 4.41721ZM127.48 17.6379C120.519 11.6576 112.388 7.25188 103.099 4.41634L102.515 6.3292C111.556 9.08899 119.438 13.3657 126.177 19.1549L127.48 17.6379ZM149.824 73.0956C149.824 49.144 142.414 30.607 127.484 17.6414L126.173 19.1514C140.57 31.6542 147.824 49.5833 147.824 73.0956H149.824ZM46.9797 22.8423L70.462 62.7392L72.1856 61.7247L48.7033 21.8278L46.9797 22.8423ZM21.8994 20.9847C23.1165 19.7676 24.3762 18.6099 25.6786 17.5116L24.3893 15.9827C23.0432 17.1178 21.7418 18.3138 20.4852 19.5705L21.8994 20.9847ZM47.0204 76.5363L20.8746 32.114L19.151 33.1285L45.2968 77.5508L47.0204 76.5363ZM79.2898 181.879L40.7696 116.433L39.046 117.447L77.5662 182.894L79.2898 181.879ZM20.4852 172.348C33.4501 185.313 51.2872 191.742 73.8656 191.742V189.742C51.6813 189.742 34.4028 183.437 21.8994 170.934L20.4852 172.348ZM0.222717 115.205C0.222717 139.701 6.93434 158.797 20.4852 172.348L21.8994 170.934C8.82411 157.859 2.22272 139.332 2.22272 115.205H0.222717ZM23.7137 106.681H8.74747V108.681H23.7137V106.681ZM76.2812 130.194L100.11 170.679L101.833 169.664L78.0048 129.179L76.2812 130.194ZM129.453 159.023L103.17 114.368L101.446 115.382L127.729 160.037L129.453 159.023ZM124.119 176.99C125.269 176.125 126.389 175.221 127.481 174.279L126.175 172.765C125.117 173.678 124.03 174.554 122.916 175.393L124.119 176.99ZM40.7696 116.433C37.2132 110.39 30.7251 106.681 23.7137 106.681V108.681C30.0166 108.681 35.849 112.015 39.046 117.447L40.7696 116.433ZM77.5662 182.894C79.3838 185.982 77.3132 189.742 73.8656 189.742V191.742C78.9951 191.742 81.8228 186.183 79.2898 181.879L77.5662 182.894ZM3.35501 54.0317C3.9485 54.0317 4.38916 54.5766 4.26994 55.1546L2.31117 54.7505C2.17511 55.4101 2.67813 56.0317 3.35501 56.0317V54.0317ZM4.27354 54.4252C3.77885 53.5847 2.50829 53.795 2.31117 54.7505L4.26994 55.1546C4.09718 55.9921 2.98351 56.1764 2.54993 55.4397L4.27354 54.4252ZM48.7033 21.8278C43.624 13.1979 32.3492 9.27009 24.3893 15.9827L25.6786 17.5116C32.3993 11.8441 42.3182 14.9223 46.9797 22.8423L48.7033 21.8278ZM70.2141 7.85842C68.7019 5.28911 70.4346 2.17627 73.2867 2.17627V0.17627C68.7593 0.17627 66.2595 5.08244 68.4905 8.8729L70.2141 7.85842ZM2.54993 55.4397C2.18378 54.8176 2.63168 54.0317 3.35501 54.0317V56.0317C4.18019 56.0317 4.69138 55.1351 4.27354 54.4252L2.54993 55.4397ZM127.729 160.037C130.236 164.296 129.769 169.644 126.173 172.767L127.484 174.277C131.939 170.409 132.355 163.953 129.453 159.023L127.729 160.037ZM137.681 85.238C144.387 85.238 149.824 79.8017 149.824 73.0956H147.824C147.824 78.6971 143.283 83.238 137.681 83.238V85.238ZM45.2968 77.5508C48.1002 82.3138 53.2145 85.238 58.7412 85.238V83.238C53.923 83.238 49.4644 80.6887 47.0204 76.5363L45.2968 77.5508ZM89.7256 108.681C94.5438 108.681 99.0024 111.23 101.446 115.382L103.17 114.368C100.367 109.605 95.2524 106.681 89.7256 106.681V108.681ZM124.753 83.238C118.45 83.238 112.618 79.9032 109.421 74.4713L107.697 75.4858C111.254 81.5283 117.742 85.238 124.753 85.238V83.238ZM20.4852 19.5705C16.8406 23.2151 16.6128 28.8161 19.151 33.1285L20.8746 32.114C18.7203 28.4538 19.0025 23.8815 21.8994 20.9847L20.4852 19.5705ZM100.11 170.679C105.09 179.141 115.995 183.108 124.119 176.99L122.916 175.393C116.015 180.589 106.393 177.411 101.833 169.664L100.11 170.679ZM128.486 106.681C127.412 106.681 126.745 107.848 127.29 108.774L129.013 107.759C129.253 108.167 128.959 108.681 128.486 108.681V106.681ZM78.0048 129.179C72.6686 120.113 79.2054 108.681 89.7256 108.681V106.681C77.6583 106.681 70.1602 119.794 76.2812 130.194L78.0048 129.179ZM129.875 108.069C129.875 107.302 129.253 106.681 128.486 106.681V108.681C128.149 108.681 127.875 108.407 127.875 108.069H129.875ZM70.462 62.7392C75.7982 71.8056 69.2614 83.238 58.7412 83.238V85.238C70.8085 85.238 78.3066 72.1243 72.1856 61.7247L70.462 62.7392ZM2.22272 115.205C2.22272 111.602 5.14395 108.681 8.74747 108.681V106.681C4.03937 106.681 0.222717 110.497 0.222717 115.205H2.22272ZM127.875 108.069C127.875 107.446 128.697 107.222 129.013 107.759L127.29 108.774C128.007 109.993 129.875 109.484 129.875 108.069H127.875Z"
        fill="#313131" />
</svg>