<svg width="24" height="20" viewBox="0 0 24 20" fill="none" xmlns="http://www.w3.org/2000/svg">
<mask id="path-1-inside-1_14_38" fill="white">
<path fill-rule="evenodd" clip-rule="evenodd" d="M23.9896 10.5451L12.2765 0.188462L0.56349 10.5451H4.56569V19.8115H19.828V10.5451H23.9896Z"/>
</mask>
<path fill-rule="evenodd" clip-rule="evenodd" d="M23.9896 10.5451L12.2765 0.188462L0.56349 10.5451H4.56569V19.8115H19.828V10.5451H23.9896Z" fill="black"/>
<path d="M12.2765 0.188462L13.0901 -0.73169L12.2765 -1.45106L11.4629 -0.73169L12.2765 0.188462ZM23.9896 10.5451V11.7733H27.2329L24.8031 9.6249L23.9896 10.5451ZM0.56349 10.5451L-0.250103 9.6249L-2.67989 11.7733H0.56349V10.5451ZM4.56569 10.5451H5.79395V9.3168H4.56569V10.5451ZM4.56569 19.8115H3.33744V21.0397H4.56569V19.8115ZM19.828 19.8115V21.0397H21.0563V19.8115H19.828ZM19.828 10.5451V9.3168H18.5998V10.5451H19.828ZM11.4629 1.10861L23.176 11.4652L24.8031 9.6249L13.0901 -0.73169L11.4629 1.10861ZM1.37708 11.4652L13.0901 1.10861L11.4629 -0.73169L-0.250103 9.6249L1.37708 11.4652ZM4.56569 9.3168H0.56349V11.7733H4.56569V9.3168ZM5.79395 19.8115V10.5451H3.33744V19.8115H5.79395ZM19.828 18.5832H4.56569V21.0397H19.828V18.5832ZM18.5998 10.5451V19.8115H21.0563V10.5451H18.5998ZM23.9896 9.3168H19.828V11.7733H23.9896V9.3168Z" fill="black" mask="url(#path-1-inside-1_14_38)"/>
</svg>
