<svg width="24" height="20" viewBox="0 0 24 20" fill="none" xmlns="http://www.w3.org/2000/svg">
<mask id="path-1-inside-1_347_446" fill="white">
<path fill-rule="evenodd" clip-rule="evenodd" d="M23.9895 10.5451L12.2765 0.188462L0.563475 10.5451H4.56568V19.8115H19.828V10.5451H23.9895Z"/>
</mask>
<path d="M12.2765 0.188462L13.0901 -0.73169L12.2765 -1.45106L11.4629 -0.73169L12.2765 0.188462ZM23.9895 10.5451V11.7733H27.2329L24.8031 9.6249L23.9895 10.5451ZM0.563475 10.5451L-0.250118 9.6249L-2.67991 11.7733H0.563475V10.5451ZM4.56568 10.5451H5.79393V9.3168H4.56568V10.5451ZM4.56568 19.8115H3.33742V21.0397H4.56568V19.8115ZM19.828 19.8115V21.0397H21.0563V19.8115H19.828ZM19.828 10.5451V9.3168H18.5998V10.5451H19.828ZM11.4629 1.10861L23.1759 11.4652L24.8031 9.6249L13.0901 -0.73169L11.4629 1.10861ZM1.37707 11.4652L13.0901 1.10861L11.4629 -0.73169L-0.250118 9.6249L1.37707 11.4652ZM4.56568 9.3168H0.563475V11.7733H4.56568V9.3168ZM5.79393 19.8115V10.5451H3.33742V19.8115H5.79393ZM19.828 18.5832H4.56568V21.0397H19.828V18.5832ZM18.5998 10.5451V19.8115H21.0563V10.5451H18.5998ZM23.9895 9.3168H19.828V11.7733H23.9895V9.3168Z" fill="black" mask="url(#path-1-inside-1_347_446)"/>
</svg>
