<svg width="98" height="98" viewBox="0 0 98 98" fill="none" xmlns="http://www.w3.org/2000/svg">
<path d="M94.5588 57.2709V45.48C96.7459 43.6111 97.9969 40.9113 97.9969 38.0199C97.9969 33.9331 95.4268 30.2324 91.5995 28.8084L56.2577 15.6552C51.4697 13.8728 46.138 13.8821 41.3623 15.6768L6.3727 28.8146C2.56391 30.2448 0 33.9424 0 38.0168C0 42.0851 2.56391 45.7827 6.3727 47.2098L19.461 52.1276L19.4888 69.5961C20.0973 78.8324 34.7116 83.6729 48.8316 83.6729C62.9517 83.6729 77.566 78.8417 78.1776 69.5529L78.2023 52.2172L89.5669 47.9821V57.277C87.8834 58.4972 86.8115 60.8758 86.8115 63.5015C86.8115 66.9705 86.8115 70.5568 92.0598 70.5568C97.305 70.5568 97.305 66.9705 97.305 63.5015C97.3142 60.8727 96.2454 58.491 94.5588 57.2709ZM27.1157 55.0035L41.3623 60.3537C46.1349 62.1515 51.4759 62.1577 56.267 60.3815L70.56 55.0529V69.0185C70.56 71.4063 62.1022 75.9905 48.8378 75.9905C35.5796 75.9905 27.1187 71.4156 27.1187 69.0185L27.1157 55.0035ZM45.1773 52.4519L15.9642 41.4858C15.7016 41.387 15.3773 41.2758 15.0128 41.1553C13.3385 40.5962 10.2186 39.5552 10.2186 38.023C10.2186 36.4599 13.1964 35.4838 14.9726 34.8969C15.3526 34.7733 15.6893 34.659 15.9642 34.5602L45.1711 23.5848C46.3481 23.14 47.5806 22.9207 48.8316 22.9207C50.0796 22.9207 51.2998 23.1369 52.4675 23.5724L81.9709 34.5571C82.2088 34.6467 82.5023 34.7486 82.8297 34.8536C84.436 35.4066 87.7814 36.5341 87.7814 38.023C87.7814 38.6223 86.8022 39.7004 81.9679 41.4889L52.4705 52.4674C50.1321 53.3385 47.5219 53.3323 45.1773 52.4519Z" fill="#59A5D8"/>
</svg>
