<svg width="106" height="136" viewBox="0 0 106 136" fill="none" xmlns="http://www.w3.org/2000/svg">
<path fill-rule="evenodd" clip-rule="evenodd" d="M91.0367 76.7902C91.1373 76.961 91.399 76.8897 91.399 76.6915V76.6915C91.399 76.584 91.3119 76.4969 91.2044 76.4969V76.4969C91.0539 76.4969 90.9604 76.6605 91.0367 76.7902V76.7902ZM105.601 51.8466C105.601 56.2327 102.045 59.7883 97.6593 59.7883H88.6878C83.943 59.7883 79.5523 57.2779 77.1455 53.1887L49.0725 5.49213C47.7954 3.3223 49.2446 0.586426 51.7623 0.586426V0.586426C59.3259 0.586426 66.3393 1.58344 72.8027 3.57746C79.3349 5.57149 85.0419 8.66567 89.9238 12.86C100.375 21.9362 105.601 34.9318 105.601 51.8466V51.8466ZM41.638 59.7883C49.6876 59.7883 54.6893 51.0408 50.6063 44.1036L33.7903 15.5329C30.3308 9.65529 22.8151 7.14894 17.5744 11.5135C16.5579 12.3601 15.5772 13.2559 14.6322 14.2008V14.2008C12.3993 16.4338 12.2141 19.9058 13.8159 22.6273L32.6698 54.6605C34.5399 57.8377 37.9514 59.7883 41.638 59.7883V59.7883ZM1.94806 38.5559C1.95286 38.5333 1.9829 38.5284 1.99461 38.5483V38.5483C2.00454 38.5652 1.99238 38.5864 1.97281 38.5864V38.5864C1.95672 38.5864 1.94472 38.5716 1.94806 38.5559V38.5559ZM16.6723 76.4969C21.4171 76.4969 25.8078 79.0074 28.2146 83.0965L55.5406 129.524C57.1481 132.255 55.3441 135.699 52.1749 135.699V135.699C36.2227 135.699 23.7085 131.161 14.6322 122.084C5.1434 112.596 0.398992 99.1875 0.398992 81.8601V81.8601C0.398992 78.8981 2.8002 76.4969 5.76224 76.4969H16.6723ZM87.7722 125.17C82.4236 129.246 75.0746 126.707 71.6637 120.912L54.7538 92.1817C50.6708 85.2445 55.6725 76.4969 63.722 76.4969V76.4969C67.4087 76.4969 70.8202 78.4475 72.6903 81.6247L91.2116 113.093C93.2083 116.485 92.8959 120.844 89.9238 123.425V123.425C89.2235 124.029 88.5063 124.611 87.7722 125.17Z" fill="white"/>
</svg>
